# xmcd
#
# Track frame offsets:
#	150
#	12057
#	24800
#	37281
#	48588
#	59634
#	71377
#	84045
#	96229
#	117439
#	134342
#	148392
#	174100
#	195128
#	216118
#	240898
#	256217
#	283367
#	314713
#
# Disc length: 4517 seconds
#
# Revision: 0
# Processed by: cddbd v1.5.1PL2 Copyright (c) Steve Scherf et al.
# Submitted via: audiograbber 1.82.02
#
DISCID=0d11a313
DTITLE=Claude Bolling - Collector CD3
DYEAR=1900
DGENRE=
TTITLE0=Ory's Creole Trombone
TTITLE1=Sweetie Dear
TTITLE2=Black And Blue
TTITLE3=Dippermouth Blues
TTITLE4=Blues In Disguise
TTITLE5=You, Rascal You
TTITLE6=Riverside Blues
TTITLE7=Georgia Bobo
TTITLE8=Sweet Patootie
TTITLE9=Wild Man Blues
TTITLE10=Fireworks
TTITLE11=Royal Garden Blues
TTITLE12=I Thought I Hear DBuddy Bolden Say
TTITLE13=Muskrat Ramble
TTITLE14=High Society
TTITLE15=Cornet Shop Suey
TTITLE16=St. Louis Blues
TTITLE17=Basin Street Blues
TTITLE18=King Porter Stomp
EXTD=
EXTT0=
EXTT1=
EXTT2=
EXTT3=
EXTT4=
EXTT5=
EXTT6=
EXTT7=
EXTT8=
EXTT9=
EXTT10=
EXTT11=
EXTT12=
EXTT13=
EXTT14=
EXTT15=
EXTT16=
EXTT17=
EXTT18=
PLAYORDER=
